<svg id="Layer_1" data-name="Layer 1" xmlns="http://www.w3.org/2000/svg" xmlns:xlink="http://www.w3.org/1999/xlink" viewBox="0 0 240 240"><defs><style>.cls-1{fill:#001729;}.cls-2,.cls-3{fill-rule:evenodd;}.cls-2{fill:url(#GradientFill_1);}.cls-3{fill:#f8f8f8;}</style><linearGradient id="GradientFill_1" x1="37.99" y1="120" x2="84.55" y2="120" gradientUnits="userSpaceOnUse"><stop offset="0" stop-color="#1464b0"/><stop offset="1" stop-color="#20c4f4"/></linearGradient></defs><title>MODIN_hrz</title><rect class="cls-1" width="240" height="240"/><path class="cls-2" d="M49.88,110.1h4.44a.77.77,0,0,0,.76-.76.77.77,0,0,0-.76-.77H49.88a.77.77,0,1,0,0,1.53Zm30.26,15.22a3.74,3.74,0,0,0-3.81,3.82A3.81,3.81,0,0,0,80.14,133H83.8a3.81,3.81,0,0,0,3.82-3.81,3.75,3.75,0,0,0-3.82-3.82Zm3.66-10.64a3.75,3.75,0,0,0,3.82-3.82,3.81,3.81,0,0,0-3.82-3.81H80.14a3.81,3.81,0,0,0-3.81,3.81,3.74,3.74,0,0,0,3.81,3.82Zm-3.66,1.5A3.82,3.82,0,0,0,76.33,120a3.74,3.74,0,0,0,3.81,3.82H83.8A3.75,3.75,0,0,0,87.62,120a3.82,3.82,0,0,0-3.82-3.81Zm-10.5,9.14a3.74,3.74,0,0,0-3.81,3.82A3.8,3.8,0,0,0,69.64,133H71a3.81,3.81,0,0,0,3.82-3.81A3.75,3.75,0,0,0,71,125.32ZM71,114.68a3.75,3.75,0,0,0,3.82-3.82A3.81,3.81,0,0,0,71,107.05h-1.4a3.8,3.8,0,0,0-3.81,3.81,3.74,3.74,0,0,0,3.81,3.82Zm-1.4,1.5A3.82,3.82,0,0,0,65.83,120a3.74,3.74,0,0,0,3.81,3.82H71A3.75,3.75,0,0,0,74.86,120,3.82,3.82,0,0,0,71,116.18Zm-25.15-3h2.22a.76.76,0,0,0,.77-.76.78.78,0,0,0-.77-.77H44.49a.76.76,0,0,0,0,1.52Zm-6.77-4.58h.58a.76.76,0,0,0,.77-.76.78.78,0,0,0-.77-.77h-.58a.76.76,0,0,0,0,1.52ZM49.88,129.9h4.44a.76.76,0,0,1,.76.76.77.77,0,0,1-.76.77H49.88a.77.77,0,1,1,0-1.53Zm-5.39-3.05h2.22a.76.76,0,1,1,0,1.52H44.49a.76.76,0,0,1,0-1.52Zm-6.77,4.58h.58a.76.76,0,0,1,.77.76.78.78,0,0,1-.77.77h-.58a.76.76,0,0,1,0-1.52ZM41.13,133h19.4a3.81,3.81,0,0,0,3.81-3.81,3.74,3.74,0,0,0-3.81-3.82c-7.35,0-13.5,0-20.85,0a.77.77,0,0,0,0,1.53h2a.76.76,0,0,1,0,1.52H36.72a.77.77,0,0,0,0,1.53H47.15a.77.77,0,0,1,0,1.53h-6a.76.76,0,0,0-.73.76.77.77,0,0,0,.76.77Zm8.75-13.73h4.44a.76.76,0,0,0,.76-.76.77.77,0,0,0-.76-.77H49.88a.78.78,0,0,0-.77.77.77.77,0,0,0,.77.76Zm-5.39,3.06h2.22a.77.77,0,1,0,0-1.53H44.49a.76.76,0,0,0-.76.76.77.77,0,0,0,.76.77Zm-6.77-4.58h.58a.76.76,0,1,0,0-1.52h-.58a.77.77,0,0,0-.76.76.77.77,0,0,0,.76.77Zm3.41-1.53h19.4A3.82,3.82,0,0,1,64.34,120a3.74,3.74,0,0,1-3.81,3.82c-7.35,0-13.5,0-20.85,0a.76.76,0,0,1,0-1.52h2a.77.77,0,0,0,.76-.77.77.77,0,0,0-.76-.76H36.72a.77.77,0,0,1,0-1.53H47.15a.77.77,0,0,0,0-1.53h-6a.77.77,0,0,1,0-1.53Zm0-9.14h19.4a3.81,3.81,0,0,1,3.81,3.81,3.74,3.74,0,0,1-3.81,3.82c-7.35,0-13.5,0-20.85,0a.77.77,0,0,1-.76-.76.76.76,0,0,1,.73-.77h2a.76.76,0,0,0,0-1.52H36.72a.77.77,0,0,1,0-1.53H47.15a.77.77,0,0,0,0-1.53h-6a.76.76,0,0,1-.73-.76A.77.77,0,0,1,41.13,107Z" transform="translate(0 0)"/><path class="cls-3" d="M107.5,124.79h2.62l7.75-9.34v12.7h3.33v-16.3h-3.31a2.86,2.86,0,0,0-1,.19,2.64,2.64,0,0,0-.72.47,6.2,6.2,0,0,0-.54.61l-6.77,8.31-6.76-8.31a5.13,5.13,0,0,0-.54-.61,2.64,2.64,0,0,0-.72-.47,2.86,2.86,0,0,0-1.05-.19H96.43v16.3h3.33v-12.7l7.74,9.34Zm28.37-13.17a25.19,25.19,0,0,0-5.06.42,9.54,9.54,0,0,0-3.56,1.4,5.83,5.83,0,0,0-2.11,2.59,11.61,11.61,0,0,0,0,7.94,5.83,5.83,0,0,0,2.11,2.59,9.54,9.54,0,0,0,3.56,1.4,30.75,30.75,0,0,0,10.13,0,9.66,9.66,0,0,0,3.57-1.4,5.88,5.88,0,0,0,2.1-2.59,11.61,11.61,0,0,0,0-7.94,5.88,5.88,0,0,0-2.1-2.59,9.66,9.66,0,0,0-3.57-1.4,25.23,25.23,0,0,0-5.07-.42Zm0,13.55c-1.06,0-2,0-2.87-.1a10.21,10.21,0,0,1-2.23-.41,4.15,4.15,0,0,1-1.59-.88,3.49,3.49,0,0,1-1-1.5,8.58,8.58,0,0,1,0-4.57,3.61,3.61,0,0,1,1-1.5,4.27,4.27,0,0,1,1.59-.87,10.21,10.21,0,0,1,2.23-.41c.85-.07,1.81-.1,2.87-.1s2,0,2.88.1a10.33,10.33,0,0,1,2.23.41,4.2,4.2,0,0,1,1.59.87,3.61,3.61,0,0,1,1,1.5,8.58,8.58,0,0,1,0,4.57,3.49,3.49,0,0,1-1,1.5,4.08,4.08,0,0,1-1.59.88,10.33,10.33,0,0,1-2.23.41c-.85.07-1.81.1-2.88.1Zm14.68,3h13.38a11.55,11.55,0,0,0,3.69-.52,5.66,5.66,0,0,0,2.42-1.55,6.2,6.2,0,0,0,1.33-2.55,15.78,15.78,0,0,0,0-7.06,6.2,6.2,0,0,0-1.33-2.55,5.57,5.57,0,0,0-2.42-1.55,11.55,11.55,0,0,0-3.69-.52H150.55v16.3ZM168.29,120a12.84,12.84,0,0,1-.08,1.7,5,5,0,0,1-.33,1.34,2.55,2.55,0,0,1-.73,1,3.33,3.33,0,0,1-1.27.59,8.18,8.18,0,0,1-1.95.2H154v-9.65h10a7.64,7.64,0,0,1,1.95.21,3.19,3.19,0,0,1,1.27.6,2.55,2.55,0,0,1,.73,1,5.14,5.14,0,0,1,.33,1.35,12.84,12.84,0,0,1,.08,1.7Zm6.79-8.15v16.3h3.41v-16.3Zm10.86,3.46h0a4,4,0,0,1,.72,0,1.87,1.87,0,0,1,.62.23,3.18,3.18,0,0,1,.68.54,11.39,11.39,0,0,1,.88,1q.52.63,1.26,1.59L191.9,121c.74,1,1.4,1.83,2,2.56s1.13,1.36,1.62,1.88a11,11,0,0,0,1.41,1.31,6.19,6.19,0,0,0,1.37.83,6.12,6.12,0,0,0,1.51.42,11,11,0,0,0,1.8.13H204v-16.3h-3.41v12.84h0a3.79,3.79,0,0,1-.78,0,2,2,0,0,1-.68-.25,3.19,3.19,0,0,1-.71-.56,11.43,11.43,0,0,1-.89-1c-.34-.42-.74-.95-1.2-1.58s-1-1.4-1.67-2.29-1.3-1.78-1.85-2.5-1-1.35-1.52-1.87a11,11,0,0,0-1.38-1.31,6.19,6.19,0,0,0-1.4-.84,6.65,6.65,0,0,0-1.59-.45,12.88,12.88,0,0,0-2-.13h-2.4v16.3h3.4Z" transform="translate(0 0)"/></svg>